# xmcd
#
# Track frame offsets: 
#        150
#        16377
#        31602
#        42593
#        60108
#        80252
#        93750
#        108485
#        121445
#        130705
#        145150
#        156962
#        178087
#        201860
#
# Disc length: 2862 seconds
#
# Revision: 6
# Processed by: cddbd v1.5.2PL0 Copyright (c) Steve Scherf et al.
# Submitted via: ExactAudioCopy v0.99pb5
#
DISCID=ae0b2c0e
DTITLE=Various Artist - American Folk Blues Festival '63 Part 2
DYEAR=0
DGENRE=Blues
TTITLE0=Otis Spann - Going' Down Slow
TTITLE1=Willie Dixon - Sittin' and Cryin' the Blues
TTITLE2=Willie Dixon - Crazy for My Baby
TTITLE3=Victoria Spivey - Grant Spivey
TTITLE4=Victoria Spivey - T.B. Blues
TTITLE5=Big Joe Williams - Big Roll Blues
TTITLE6=Big Joe Williams - Back in the Bottom Blues
TTITLE7=Big Joe Williams - I Have No Friends
TTITLE8=Big Joe Williams - Baby Please Don't Go
TTITLE9=Lonnie Johnson - Careless Love
TTITLE10=Lonnie Johnson - C.C. Rider
TTITLE11=Lonnie Johnson - It's Too Late To Cry
TTITLE12=Matt'Guitar'Murphy - Matt's Guitar Boogie
TTITLE13=Memphis Slim - Bye Bye Blues
EXTD=Recorded live in Bremen, Germany on October 13, 1963. YEAR: 0
EXTT0=
EXTT1=
EXTT2=
EXTT3=
EXTT4=
EXTT5=
EXTT6=
EXTT7=
EXTT8=
EXTT9=
EXTT10=
EXTT11=
EXTT12=
EXTT13=
PLAYORDER=
